PathFileType	4	(X/Y/Z)	C:\Users\Basilio\Documents\Thesis Gigler\squatting_fais\c3dfiles\019\SJ_pre3\markers_experimental.trc
DataRate	CameraRate	NumFrames	NumMarkers	Units	OrigDataRate	OrigDataStartFrame	OrigNumFrames
200.000000	200.000000	4	59	mm	200.000000	651	1302
Frame#	Time	FHD			RBHD			C7			T10			CLAV			LSHO			LUUPA			LMUPA			LDUPA			LLEP			LMEP			LRAD			LUL			LRFIN			RSHO			RUPA1			RMUPA			RDUPA			RLEP			RMEP			RRAD			RUL			RUFIN			LASI			RASI			USACR			LSACR			RSACR			LTHI1			LTHI2			LTHI3			LTHI4			LLFC			LTIB1			LTIB2			LTIB3			LTIB4			LLMAL			LMMAL			LHEE			LMT1			LMT2			LMT5			RTHI			RTHI2			RTHI3			RTHI4			RLFC			RTIB1			RTIB2			RTIB3			RTIB4			RLMAL			RMMAL			RHEE			RMT1			RMT2			RMT5			LBHD			
		X1	Y1	Z1	X2	Y2	Z2	X3	Y3	Z3	X4	Y4	Z4	X5	Y5	Z5	X6	Y6	Z6	X7	Y7	Z7	X8	Y8	Z8	X9	Y9	Z9	X10	Y10	Z10	X11	Y11	Z11	X12	Y12	Z12	X13	Y13	Z13	X14	Y14	Z14	X15	Y15	Z15	X16	Y16	Z16	X17	Y17	Z17	X18	Y18	Z18	X19	Y19	Z19	X20	Y20	Z20	X21	Y21	Z21	X22	Y22	Z22	X23	Y23	Z23	X24	Y24	Z24	X25	Y25	Z25	X26	Y26	Z26	X27	Y27	Z27	X28	Y28	Z28	X29	Y29	Z29	X30	Y30	Z30	X31	Y31	Z31	X32	Y32	Z32	X33	Y33	Z33	X34	Y34	Z34	X35	Y35	Z35	X36	Y36	Z36	X37	Y37	Z37	X38	Y38	Z38	X39	Y39	Z39	X40	Y40	Z40	X41	Y41	Z41	X42	Y42	Z42	X43	Y43	Z43	X44	Y44	Z44	X45	Y45	Z45	X46	Y46	Z46	X47	Y47	Z47	X48	Y48	Z48	X49	Y49	Z49	X50	Y50	Z50	X51	Y51	Z51	X52	Y52	Z52	X53	Y53	Z53	X54	Y54	Z54	X55	Y55	Z55	X56	Y56	Z56	X57	Y57	Z57	X58	Y58	Z58	X59	Y59	Z59	

652	3.255	-22.86973571777344	909.4277954101565	-1024.613891601563	-25.37962722778321	907.861022949219	-884.270935058594	-102.5961532592774	815.9952392578127	-950.935485839844	-357.5495910644532	690.8799438476564	-947.5721435546877	-32.92827606201173	679.3186035156251	-949.8031005859377	-43.3894386291504	752.3001708984376	-1100.944213867188	-163.727294921875	697.5083007812501	-1214.263671875	-200.1342010498047	669.0570678710939	-1195.3095703125	-221.4012145996094	685.9182128906251	-1247.698852539063	-283.8607177734376	700.8161010742189	-1304.452514648438	-323.0455322265626	756.0145263671876	-1280.132568359375	-468.5889282226564	585.4631347656251	-1169.31005859375	-464.066864013672	543.0855102539064	-1223.591674804688	-438.3032226562501	559.3459472656251	-1132.787109375	-36.24658966064454	747.0175170898439	-807.346374511719	-158.5614929199219	754.7378540039064	-664.2519531250001	-175.062484741211	706.9962158203126	-658.3208618164064	-207.5348510742188	735.6348266601564	-616.0895385742189	-273.3975219726563	705.6484985351564	-576.3004760742189	-305.7481689453126	762.0901489257814	-594.3273925781251	-461.629852294922	592.2803344726564	-717.0261840820314	-447.3558044433595	539.5451660156251	-675.3778686523439	-433.6405334472657	562.5027465820314	-765.6794433593751	-425.9179077148439	555.7365112304689	-1141.06982421875	nan	nan	nan	-493.0081787109376	616.5415039062501	-948.9619140625002	-523.9915771484376	598.6503906250001	-975.0218505859377	-520.4007568359376	597.3794555664064	-919.4663696289065	-399.6690979003907	431.053924560547	-1186.736083984375	-323.5705566406251	464.9529113769532	-1209.41845703125	-309.9192504882813	504.4575500488282	-1186.068115234375	-273.6229248046876	434.5009765625001	-1227.28515625	-191.1576385498047	416.8077087402345	-1235.7919921875	-160.6136779785157	283.6607360839844	-1213.885620117188	-240.7482299804688	268.0527954101563	-1250.590942382813	-204.6934661865235	251.5342712402344	-1232.959838867188	-237.1037902832032	182.824691772461	-1193.171752929688	-360.8535156250001	97.35171508789065	-1198.104858398438	-321.4676513671876	94.00624847412111	-1119.418701171875	-416.666961669922	48.22576904296876	-1134.168334960938	-204.3788299560547	55.4996910095215	-1186.052001953125	-215.4703521728516	58.28799057006837	-1223.5810546875	-271.2873840332032	36.07380676269532	-1261.865112304688	-456.6788940429689	466.444549560547	-733.1120605468751	-402.3921508789064	491.1534118652345	-730.0360107421876	-393.3955078125001	509.8663024902345	-758.0074462890626	-333.8572387695313	469.1301269531251	-689.7550659179689	-191.8872528076172	421.8886718750001	-661.4424438476564	-175.9414215087891	249.5690917968751	-704.5846557617189	-271.4234313964844	208.641586303711	-666.9825439453126	-235.5365600585938	191.3077392578125	-691.7431030273439	-248.0150756835938	148.4426422119141	-731.7154541015626	-349.6228027343751	98.72295379638675	-704.1759033203126	-310.1309509277344	92.66580200195314	-776.022888183594	-398.0979614257814	45.61850357055665	-768.3917236328127	-196.9731445312501	53.216121673584	-708.5012817382814	-210.7028045654297	60.70505142211915	-665.2434692382814	-265.6769714355469	41.32218170166016	-630.9381713867189	nan	nan	nan	
653	3.26	-23.20635986328125	908.3953247070315	-1024.708251953125	-25.0408000946045	906.5542602539065	-884.374694824219	-101.7993927001953	814.6131591796877	-950.9501953125002	-357.3565979003907	689.7718505859376	-947.6688232421877	-32.80734252929688	677.9765014648439	-949.7379150390627	-43.43519973754884	750.8406372070314	-1100.721313476563	-163.6837768554688	696.2020263671876	-1214.174560546875	-200.1484985351563	667.7158203125001	-1195.196899414063	-221.2726745605469	684.6748657226564	-1247.641235351563	-283.6514892578126	699.4840087890626	-1304.408081054688	-323.1075744628907	754.8276977539064	-1280.34716796875	-468.4833374023439	584.4184570312501	-1169.216796875	-464.0700988769532	541.9246826171876	-1223.479370117188	-438.1591186523439	558.3612060546876	-1132.685180664063	-35.98006439208985	745.5864257812501	-807.4790039062502	-158.4402008056641	754.3060302734376	-664.4595947265626	-174.9001770019532	705.9553222656251	-658.3549194335939	-207.3686828613282	734.7806396484376	-616.2672119140626	-273.1869812011719	704.8764648437501	-576.2138061523439	-305.6755676269532	761.2200317382814	-594.4373168945314	-461.3440856933595	591.4197387695314	-717.0268554687501	-447.2190856933595	538.5982055664064	-675.4071044921876	-433.2581176757814	561.9525146484376	-765.6784057617189	-424.994598388672	553.3703002929689	-1139.095458984375	nan	nan	nan	-492.7971191406251	615.4476928710939	-949.041198730469	-523.5605468750001	597.4956054687501	-974.9710083007815	-520.0242309570314	596.2277221679689	-919.561462402344	-399.4426269531251	430.2962036132814	-1186.634155273438	-323.4570312500001	464.5098266601564	-1209.209838867188	-309.7904052734376	503.8821411132814	-1185.980224609375	-273.2352294921876	433.9233398437501	-1227.189453125	-190.8824920654297	416.5476684570314	-1235.67041015625	-160.3761901855469	283.5004272460938	-1213.802490234375	-240.5993041992188	267.9102783203126	-1250.497314453125	-204.5539550781251	251.4264526367188	-1232.876708984375	-236.9423065185547	182.6950988769532	-1193.0859375	-360.8116149902344	97.33119201660159	-1198.025756835938	-321.4216003417969	93.93592071533205	-1119.36181640625	-416.683319091797	48.25106430053712	-1134.1572265625	-204.4146728515626	55.51940155029298	-1186.030639648438	-215.4955444335938	58.27991104125978	-1223.60107421875	-271.2821044921876	36.07870864868165	-1261.859130859375	-456.2385253906251	465.5708923339845	-733.0465087890626	-402.0324707031251	490.5483703613282	-729.9635009765626	-393.2728576660157	509.2092285156251	-758.0558471679689	-333.6939697265626	468.6893615722657	-689.9210815429689	-191.457015991211	421.6712951660157	-661.7058715820314	-175.781982421875	249.4073638916016	-704.7877807617189	-271.3880310058594	208.6129760742188	-667.1463012695314	-235.3662414550782	191.1877746582032	-691.8945312500001	-248.0338745117188	148.3495483398438	-731.8781127929689	-349.5652770996094	98.65743255615237	-704.2532348632814	-310.0736694335938	92.56665802001955	-776.0408935546877	-398.0645446777345	45.59347152709962	-768.4486083984377	-196.9187316894532	53.14392089843751	-708.4769897460939	-210.7281799316407	60.67294311523439	-665.2006835937501	-265.7098388671876	41.33429718017579	-630.8767089843751	nan	nan	nan	
654	3.265	-23.37369155883789	907.3333129882815	-1024.82568359375	-24.8617286682129	905.465270996094	-884.4194335937502	-102.0983047485352	813.666198730469	-950.9222412109377	-357.3498229980469	688.7775878906251	-947.699645996094	-32.50239944458009	676.7174072265626	-949.808776855469	-42.99508666992188	749.4567871093751	-1101.029541015625	-163.8334655761719	694.7630615234376	-1214.083251953125	-200.082260131836	666.3321533203126	-1195.1650390625	-221.2122039794922	683.4136352539064	-1247.526489257813	-283.6274719238282	698.1695556640626	-1304.377563476563	-323.1653137207032	753.6124267578126	-1280.463134765625	-468.5302124023439	583.4106445312501	-1169.003540039063	-463.898406982422	540.5939331054689	-1223.206665039063	-438.0673828125001	557.4743652343751	-1132.578491210938	-35.95467758178712	744.6937866210939	-807.7282714843752	-158.1584167480469	752.9461669921876	-664.4609985351564	-174.8171539306641	705.0921630859376	-658.3930664062501	-207.2285308837891	733.8888549804689	-616.3360595703126	-272.9591979980469	703.9466552734376	-576.2670898437501	-305.6188659667969	760.4801635742189	-594.5318603515626	-461.2178039550782	590.5236816406251	-716.9898071289064	-446.9682006835939	537.6872558593751	-675.3777465820314	-433.0993957519532	561.3804931640626	-765.6462402343751	-423.3425292968751	551.3047485351564	-1136.847534179688	nan	nan	nan	-492.5222167968751	614.3971557617189	-949.0886840820315	-522.9111938476564	596.3948974609376	-974.8294067382815	-519.6923217773439	595.0260009765626	-919.6263427734377	-399.1033630371095	429.4724731445314	-1186.473266601563	-323.3032836914063	463.993377685547	-1209.055786132813	-309.5612487792969	503.2449645996095	-1185.716674804688	-272.9117126464844	433.4344177246095	-1227.057373046875	-190.6685943603516	416.3634338378907	-1235.632202148438	-160.2987976074219	283.3498840332032	-1213.802001953125	-240.4290466308594	267.7742614746094	-1250.4326171875	-204.3606567382813	251.2937164306641	-1232.88818359375	-236.874984741211	182.5834197998047	-1193	-360.8271789550782	97.3244552612305	-1197.997314453125	-321.3903808593751	93.83810424804689	-1119.362670898438	-416.6874389648439	48.24820709228517	-1134.200317382813	-204.3975982666016	55.46496200561525	-1186.00439453125	-215.5171051025391	58.2396812438965	-1223.538940429688	-271.3026428222657	36.06152343750001	-1261.908203125	-455.9798889160157	464.9460754394532	-732.8809204101564	-401.799530029297	489.8100891113282	-730.0882568359376	-393.0601196289064	508.5695190429689	-758.1258544921876	-333.3644104003907	468.0738830566407	-690.0805664062501	-191.1355133056641	421.4195556640626	-662.0312500000001	-175.5616760253907	249.2648010253907	-704.9879150390626	-271.2316589355469	208.5759582519532	-667.3582153320314	-235.3551635742188	191.1242980957032	-692.0578002929689	-247.8427734375001	148.1194458007813	-732.0975952148439	-349.5874023437501	98.65843200683597	-704.3662109375001	-310.1232910156251	92.44763183593751	-776.1497192382815	-398.0499572753907	45.57971954345704	-768.4609985351565	-197.0245819091797	53.17250442504884	-708.4869384765626	-210.6877746582032	60.65125274658205	-665.2586059570314	-265.6779479980469	41.33193969726563	-630.9007568359376	nan	nan	nan	
655	3.27	-23.05516433715821	906.0622558593752	-1024.807373046875	-24.75626945495606	904.3635864257815	-884.4263916015627	-102.0951919555664	812.6368408203127	-951.3372802734377	-357.0928649902344	687.5701293945314	-947.7459106445315	-32.3375358581543	675.6085205078126	-949.8049316406252	-43.10773849487305	748.1560668945314	-1100.863647460938	-163.5420532226563	693.4236450195314	-1214.159545898438	-199.9434967041016	665.0285034179689	-1195.11865234375	-221.0456695556641	681.9518432617189	-1247.484985351563	-283.5513610839844	696.8036499023439	-1304.365356445313	-322.6452636718751	752.0445556640626	-1280.215576171875	-468.467742919922	582.2781372070314	-1168.80810546875	-464.1098937988282	539.6068115234376	-1223.043334960938	-437.5072326660157	556.2412719726564	-1131.456298828125	-35.91441345214844	744.0200805664064	-807.9993286132815	-157.9713745117188	751.6927490234376	-664.4567260742189	-174.5913848876953	704.0855102539064	-658.4888305664064	-206.9500732421876	732.8596801757814	-616.2825927734376	-272.7814025878907	702.9442749023439	-576.2348022460939	-305.2611694335938	759.4552001953126	-594.3731079101564	-461.1935119628907	589.7736206054689	-716.8756103515626	-446.7605895996095	536.7917480468751	-675.2660522460939	-433.2406616210939	560.2219238281251	-765.6613159179689	-422.268524169922	547.1093139648439	-1134.204833984375	nan	nan	nan	-492.2521362304689	613.3142700195314	-949.0939941406252	-522.6979980468751	595.1318969726564	-975.0484008789065	-519.5792236328126	594.2081298828126	-919.5446777343752	-398.8146972656251	428.733612060547	-1186.353759765625	-323.0270996093751	463.389373779297	-1208.83984375	-309.2971801757813	502.6176757812501	-1185.073852539063	-272.6000061035157	432.9729919433595	-1226.912353515625	-190.3979797363282	416.1464843750001	-1235.590942382813	-160.0515594482422	283.1068725585938	-1213.709838867188	-240.2212982177735	267.7013854980469	-1250.351806640625	-204.1716918945313	251.1815643310547	-1232.941040039063	-236.7171020507813	182.4109497070313	-1192.98828125	-360.8075866699219	97.30549621582034	-1197.97314453125	-321.3991394042969	93.80813598632814	-1119.320922851563	-416.5967102050782	48.14753341674806	-1134.165283203125	-204.4112091064454	55.47657775878908	-1186.008056640625	-215.6085205078126	58.19032287597658	-1223.595947265625	-271.2897949218751	36.03246307373048	-1261.969360351563	-455.7990112304689	464.4313964843751	-732.7957763671876	-401.5277404785157	489.0574645996095	-730.1759643554689	-392.9140014648439	508.0250549316407	-758.1677856445314	-333.1396179199219	467.6907348632814	-690.4150390625001	-190.8418121337891	421.2610473632814	-662.4859008789064	-175.5391082763672	249.2221374511719	-705.3265380859376	-271.0166931152344	208.5017242431641	-667.5444946289064	-235.2210235595704	191.0557861328125	-692.3082885742189	-247.7210388183594	147.891586303711	-732.4429931640626	-349.5599060058594	98.65203857421878	-704.4571533203126	-310.0963439941407	92.31337738037111	-776.2749023437502	-398.0796508789064	45.60762405395509	-768.448181152344	-197.0813446044922	53.07751083374025	-708.5382080078126	-210.7476806640626	60.65253067016603	-665.2814331054689	-265.6925659179688	41.32812500000001	-630.8666992187501	nan	nan	nan	
